<?xml version="1.0" encoding="iso-8859-1"?>
<!-- Generator: Adobe Illustrator 18.0.0, SVG Export Plug-In . SVG Version: 6.00 Build 0)  -->
<!DOCTYPE svg PUBLIC "-//W3C//DTD SVG 1.1//EN" "http://www.w3.org/Graphics/SVG/1.1/DTD/svg11.dtd">
<svg version="1.1" id="Capa_1" xmlns="http://www.w3.org/2000/svg" xmlns:xlink="http://www.w3.org/1999/xlink" x="0px" y="0px"
	 viewBox="0 0 490 490" style="enable-background:new 0 0 490 490;" xml:space="preserve">
<path d="M433.651,97.245c0-2.954-1.279-5.608-3.315-7.438l-27.632-27.632L343.618,2.938c-1.777-1.782-4.158-2.812-6.662-2.918
	c-0.041-0.002-0.081-0.004-0.122-0.006C336.735,0.012,336.638,0,336.538,0H66.349c-5.522,0-10,4.477-10,10v470
	c0,5.523,4.478,10,10,10h357.283c5.523,0,10-4.477,10-10V97.631C433.637,97.502,433.651,97.375,433.651,97.245z M346.388,34.142
	l42.143,42.143l10.932,10.959h-53.074V34.142z M76.349,470V20h250.039v77.245c0,5.523,4.478,10,10,10h77.244V470H76.349z"/>
<g>
</g>
<g>
</g>
<g>
</g>
<g>
</g>
<g>
</g>
<g>
</g>
<g>
</g>
<g>
</g>
<g>
</g>
<g>
</g>
<g>
</g>
<g>
</g>
<g>
</g>
<g>
</g>
<g>
</g>
</svg>
