<?xml version="1.0" encoding="UTF-8" standalone="no"?>
<svg width="926px" height="426px" viewBox="0 0 926 426" version="1.1" xmlns="http://www.w3.org/2000/svg" xmlns:xlink="http://www.w3.org/1999/xlink" xmlns:sketch="http://www.bohemiancoding.com/sketch/ns">
    <!-- Generator: Sketch 3.3.2 (12043) - http://www.bohemiancoding.com/sketch -->
    <title>uxleoBlueLogo</title>
    <desc>Created with Sketch.</desc>
    <defs></defs>
    <g id="logo" stroke="none" stroke-width="1" fill="none" fill-rule="evenodd" sketch:type="MSPage">
        <g id="1024_behance_white" sketch:type="MSArtboardGroup">
            <g id="uxleoBlueLogo" sketch:type="MSLayerGroup">
                <rect id="monza_red_square" fill="#407CC3" sketch:type="MSShapeGroup" x="0" y="0" width="425.791855" height="426"></rect>
                <text id="ux" fill="#FFFFFF" sketch:type="MSTextLayer" font-family="Gravity" font-size="340.512821" font-weight="313">
                    <tspan x="42" y="315" fill="#000000">ux</tspan>
                </text>
                <path d="M524.438961,309.933221 C524.438961,311.485045 523.940168,312.787449 522.942567,313.840473 C521.944966,314.893496 520.670272,315.42 519.118448,315.42 L504.154506,315.42 C502.713527,315.42 501.438833,314.893496 500.330387,313.840473 C499.221942,312.787449 498.667727,311.429624 498.667727,309.766955 L500.330387,78.3246474 C500.330387,76.7728234 500.856891,75.49813 501.909915,74.5005288 C502.962938,73.5029277 504.265342,73.0041346 505.817166,73.0041346 L517.455788,73.0041346 C519.007612,73.0041346 520.282306,73.5583492 521.279907,74.6667949 C522.277508,75.7752406 522.776301,77.049934 522.776301,78.4909135 L524.438961,309.933221 Z M727.616044,222.643558 C727.616044,224.527915 727.06183,225.996584 725.953384,227.049607 C724.844939,228.102631 723.570245,228.629135 722.129266,228.629135 L587.786317,228.629135 C585.68027,228.739979 584.627262,229.959251 584.627262,232.286987 C585.070641,241.154553 586.788706,249.356928 589.781509,256.894359 C592.774313,264.43179 596.820079,270.943811 601.918929,276.430617 C607.017779,281.917423 613.114139,286.212586 620.208192,289.316234 C627.302244,292.419882 635.227512,293.971683 643.984234,293.971683 C654.957846,293.971683 664.601179,291.394585 672.914522,286.240313 C681.227865,281.08604 688.044704,274.352333 693.365243,266.03899 C694.695378,264.154633 696.3026,263.212468 698.186958,263.212468 L713.815964,263.212468 C716.032856,263.212468 717.584657,264.154633 718.471413,266.03899 C719.35817,267.923348 719.35817,269.696835 718.471413,271.359503 C714.924387,278.5644 710.656935,285.076421 705.668929,290.895761 C700.680923,296.715101 695.027935,301.703032 688.709794,305.859704 C682.391654,310.016375 675.491683,313.230819 668.009674,315.503133 C660.527666,317.775447 652.574687,318.911587 644.1505,318.911587 C631.403374,318.911587 619.82029,316.556175 609.4009,311.84528 C598.981511,307.134386 590.058656,300.677787 582.63207,292.475288 C575.205484,284.27279 569.469363,274.601746 565.423536,263.461867 C561.37771,252.321988 559.354827,240.267821 559.354827,227.299006 C559.354827,213.997658 561.460842,201.804938 565.672936,190.720481 C569.885029,179.636024 575.759703,170.075823 583.297134,162.039591 C590.834565,154.00336 599.78513,147.768446 610.149097,143.334663 C620.513065,138.900881 631.791331,136.684022 643.984234,136.684022 C656.398826,136.684022 667.649381,139.067145 677.736237,143.833462 C687.823093,148.599778 696.46884,154.945535 703.673737,162.870921 C710.878634,170.796308 716.531622,179.940848 720.632871,190.304816 C724.734121,200.668783 727.061822,211.448256 727.616044,222.643558 L727.616044,222.643558 Z M696.191766,208.178413 C697.411056,208.178413 698.32551,207.762753 698.935155,206.931418 C699.5448,206.100084 699.627932,205.074787 699.184554,203.855497 C697.189352,197.86989 694.473701,192.189191 691.037519,186.813229 C687.601337,181.437267 683.52786,176.698733 678.816966,172.597484 C674.106072,168.496235 668.813323,165.226369 662.938561,162.787788 C657.063798,160.349208 650.745752,159.129936 643.984234,159.129936 C637.222715,159.129936 630.821537,160.293786 624.780508,162.621522 C618.739478,164.949258 613.280465,168.135992 608.403304,172.181819 C603.526143,176.227646 599.314112,180.96618 595.767086,186.397564 C592.22006,191.828948 589.55983,197.703622 587.786317,204.021763 C587.342939,205.241053 587.426071,206.238639 588.035716,207.014551 C588.645361,207.790463 589.615237,208.178413 590.945371,208.178413 L696.191766,208.178413 Z M840.843208,318.911587 C828.317771,318.911587 816.84553,316.500753 806.426141,311.679014 C796.006751,306.857276 787.028475,300.289833 779.491044,291.97649 C771.953614,283.663148 766.10665,273.964393 761.949979,262.879936 C757.793307,251.795479 755.715003,240.04613 755.715003,227.631538 C755.715003,215.438636 757.793307,203.855552 761.949979,192.881939 C766.10665,181.908327 771.925903,172.264993 779.407911,163.951651 C786.88992,155.638308 795.868196,149.015444 806.343008,144.082861 C816.81782,139.150277 828.317771,136.684022 840.843208,136.684022 C853.2578,136.684022 864.646909,139.150277 875.010876,144.082861 C885.374844,149.015444 894.297698,155.638308 901.779706,163.951651 C909.261715,172.264993 915.108678,181.908327 919.320772,192.881939 C923.532866,203.855552 925.638881,215.438636 925.638881,227.631538 C925.638881,240.04613 923.532866,251.795479 919.320772,262.879936 C915.108678,273.964393 909.234004,283.663148 901.696573,291.97649 C894.159142,300.289833 885.208578,306.857276 874.84461,311.679014 C864.480643,316.500753 853.146955,318.911587 840.843208,318.911587 L840.843208,318.911587 Z M900.366445,227.631538 C900.366445,219.096506 898.925487,210.727867 896.043528,202.525369 C893.16157,194.32287 889.115803,187.007238 883.906109,180.578253 C878.696414,174.149268 872.433789,168.967362 865.118048,165.03238 C857.802306,161.097398 849.710774,159.129936 840.843208,159.129936 C831.643109,159.129936 823.357601,161.014265 815.986437,164.782981 C808.615273,168.551696 802.324938,173.567338 797.115243,179.830056 C791.905548,186.092774 787.915204,193.242142 785.144089,201.278373 C782.372975,209.314605 780.987439,217.600112 780.987439,226.135144 C780.987439,236.332845 782.539239,245.615938 785.642887,253.984704 C788.746535,262.353469 793.013987,269.502836 798.445371,275.433021 C803.876755,281.363205 810.222512,285.935475 817.482831,289.149968 C824.743151,292.364461 832.529865,293.971683 840.843208,293.971683 C848.824017,293.971683 856.361335,292.419882 863.455387,289.316234 C870.54944,286.212586 876.812064,281.80658 882.243448,276.098085 C887.674832,270.38959 891.997706,263.434197 895.212198,255.231699 C898.426691,247.0292 900.144756,237.829239 900.366445,227.631538 L900.366445,227.631538 Z" id="leo" fill="#407CC3" sketch:type="MSShapeGroup"></path>
            </g>
        </g>
    </g>
</svg>