<?xml version="1.0" encoding="iso-8859-1"?>
<!-- Generator: Adobe Illustrator 18.1.1, SVG Export Plug-In . SVG Version: 6.00 Build 0)  -->
<svg version="1.1" id="Capa_1" xmlns="http://www.w3.org/2000/svg" xmlns:xlink="http://www.w3.org/1999/xlink" x="0px" y="0px"
	 viewBox="0 0 15 15" style="enable-background:new 0 0 15 15;" xml:space="preserve">
<g>
	<g>
		<path style="fill:#222;" d="M14,0H1C0.448,0,0,0.448,0,1v13c0,0.552,0.448,1,1,1h13c0.552,0,1-0.448,1-1V1
			C15,0.448,14.552,0,14,0z M11.5,11h-8C3.224,11,3,10.775,3,10.5S3.224,10,3.5,10h8c0.275,0,0.5,0.225,0.5,0.5S11.775,11,11.5,11z
			 M11.5,8h-8C3.224,8,3,7.775,3,7.5C3,7.224,3.224,7,3.5,7h8C11.775,7,12,7.224,12,7.5C12,7.775,11.775,8,11.5,8z M11.5,5h-8
			C3.224,5,3,4.776,3,4.5S3.224,4,3.5,4h8C11.775,4,12,4.224,12,4.5S11.775,5,11.5,5z"/>
	</g>
</g>
<g>
</g>
<g>
</g>
<g>
</g>
<g>
</g>
<g>
</g>
<g>
</g>
<g>
</g>
<g>
</g>
<g>
</g>
<g>
</g>
<g>
</g>
<g>
</g>
<g>
</g>
<g>
</g>
<g>
</g>
</svg>
